<svg xmlns="http://www.w3.org/2000/svg" id="Layer_1" data-name="Layer 1" viewBox="0 0 607.13 607.13"><defs><style>.cls-1{fill:#32566c}.cls-2{fill:#d8d8d8}.cls-3{fill:#748e9e}.cls-4{fill:#092b3e}</style></defs><polygon points="55.03 447.06 55.03 160.07 303.56 16.58 552.1 160.07 552.1 447.06 303.56 590.55 55.03 447.06" class="cls-1"/><polyline points="448.06 386.8 303.89 470.04 159.72 386.8 159.72 220.33 303.89 137.09 447.67 220.1 450.37 166.77 303.89 82.2 112.18 192.88 112.18 414.25 303.89 524.93 446.84 442.4" class="cls-2"/><polygon points="399.7 285.39 373.05 285.39 376.74 261.01 403.39 261.01 399.7 285.39" class="cls-3"/><path d="M323,331.68l-5.46,39h-24.1l5.46-39H277.25l-5.46,39h-24.2l5.57-39H232.92l3.32-23.56h20.24l3-21.73H239.34l3.21-23.56h20.24l5.36-38.34h25.59l-5.35,38.34h18.74l5.35-38.34h25.6l-5.36,38.34h22.6L352,286.39H329.4l-3.1,21.73h22.59l-3.32,23.56Zm-17.67-45.29H283.57l-3,21.73H302.2Z" class="cls-4"/><polygon points="365.14 337.69 391.6 337.69 398.41 293.98 371.75 293.98 365.14 337.69" class="cls-3"/><polygon points="466.44 278.02 515.29 278.02 512.52 297.58 487.5 297.58 481.88 337.66 457.62 337.66 466.44 278.02" class="cls-3"/><polygon points="460.6 277.33 406.85 277.33 397.72 337.69 451.47 337.69 454.78 315.83 425.55 315.83 425.51 315.83 426.77 307.51 430.07 287.68 447.23 287.68 445.28 301.97 433.73 301.97 432.85 307.41 456.01 307.51 460.6 277.33" class="cls-3"/></svg>